<svg width="61" height="61" viewBox="0 0 61 61" fill="none" xmlns="http://www.w3.org/2000/svg">
<path d="M24.7812 3.8125V11.4375L20.9688 13.3438L15.25 7.625L7.625 15.25L13.3438 20.9688L11.4375 24.7812H3.8125V36.2188H11.4375L13.3438 40.0312L7.625 45.75L15.25 53.375L20.9688 47.6562L24.7812 49.5625V57.1875H36.2188V49.5625L40.0312 47.6562L45.75 53.375L53.375 45.75L47.6562 40.0312L49.5625 36.2188H57.1875V24.7812H49.5625L47.6562 20.9688L53.375 15.25L45.75 7.625L40.0312 13.3438L36.2188 11.4375V3.8125H24.7812Z" stroke="white" stroke-width="2.875" stroke-linecap="round" stroke-linejoin="round"/>
<path d="M30.5 38.125C34.7112 38.125 38.125 34.7112 38.125 30.5C38.125 26.2888 34.7112 22.875 30.5 22.875C26.2888 22.875 22.875 26.2888 22.875 30.5C22.875 34.7112 26.2888 38.125 30.5 38.125Z" stroke="white" stroke-width="2.875" stroke-linecap="round" stroke-linejoin="round"/>
</svg>
