<svg width="240" height="940" viewBox="0 0 240 940" fill="none" xmlns="http://www.w3.org/2000/svg">
<path d="M46.9689 652.594C33.9525 664.832 26.9456 681.498 27.2132 699.283C27.7971 733.149 56.3601 760.666 90.9326 760.666H147.377C171.488 760.666 195.209 769.133 212.532 785.92C230.487 803.365 240.195 826.892 239.781 851.854C238.954 900.464 198.178 940 148.837 940H103.268C95.7498 940 89.6674 933.918 89.6674 926.4C89.6674 922.653 91.1759 919.247 93.6575 916.79C96.1391 914.308 99.5209 912.799 103.268 912.799H148.861C183.458 912.799 211.997 885.258 212.581 851.416C212.848 833.68 205.841 817.014 192.825 804.776C180.831 793.511 164.554 787.915 148.059 787.915H90.9569C41.6164 787.915 0.8399 748.38 0.0126926 699.769C-0.400911 674.807 9.30662 651.305 27.2619 633.836C44.5846 617.073 68.306 608.557 92.4167 608.557H148.861C183.458 608.557 211.997 581.016 212.581 547.174C212.848 529.437 205.841 512.772 192.825 500.534C180.831 489.269 164.505 483.673 148.059 483.673H90.9569C45.1442 483.673 6.70334 449.587 0.791241 405.794C0.328978 402.412 0.0613519 399.006 0.0126926 395.527C-0.400911 370.565 9.30662 347.062 27.2619 329.594C44.5846 312.831 68.306 304.315 92.4167 304.315H148.861C183.458 304.315 211.997 276.774 212.581 242.931C212.848 225.195 205.841 208.529 192.825 196.292C180.831 185.027 164.554 179.431 148.059 179.431H90.9569C41.6164 179.431 0.8399 139.895 0.0126926 91.2848C-0.400911 66.3226 9.30662 42.8202 27.2619 25.3515C44.5846 8.51537 68.306 0 92.4167 0H106.309C113.827 0 119.909 6.08241 119.909 13.6003C119.909 17.347 118.401 20.7532 115.919 23.2105C113.437 25.6921 110.056 27.2005 106.309 27.2005H91.7354C75.2886 27.2005 58.9877 32.7964 46.9689 44.1096C33.9525 56.2988 26.9456 73.0133 27.2132 90.7496C27.7971 124.616 56.3601 152.133 90.9326 152.133H147.377C171.488 152.133 195.209 160.6 212.532 177.387C230.487 194.832 240.195 218.359 239.781 243.321C238.954 291.931 198.178 331.467 148.837 331.467H91.7354C75.2886 331.467 58.9877 337.063 46.9689 348.327C33.9525 360.565 26.9456 377.231 27.2132 395.016C27.3105 398.69 27.6755 402.266 28.3567 405.745C34.0499 434.527 60.1069 456.424 90.9569 456.424H147.402C171.512 456.424 195.234 464.891 212.556 481.678C230.512 499.123 240.219 522.649 239.806 547.612C238.978 596.222 198.202 635.758 148.861 635.758H91.7354C75.2643 635.734 58.9634 641.329 46.9689 652.594Z" fill="#DC7FD3"/>
</svg>
