<svg width="12" height="12" viewBox="0 0 12 12" fill="none" xmlns="http://www.w3.org/2000/svg">
<g opacity="0.3">
<path d="M6.02461 11.5C2.97833 11.5 0.5 9.02166 0.5 5.97537C0.500117 4.64402 0.980931 3.35748 1.85401 2.35237C2.72708 1.34727 3.93371 0.691196 5.25195 0.504826C5.35761 0.490039 5.46524 0.509441 5.55909 0.560195C5.65294 0.610949 5.72809 0.690394 5.77356 0.786915C5.81903 0.883437 5.83243 0.991972 5.8118 1.09665C5.79118 1.20134 5.73761 1.29667 5.65892 1.36873C5.29887 1.69884 5.01128 2.1001 4.81433 2.5471C4.61739 2.99411 4.51538 3.47714 4.51477 3.96561C4.51477 5.90623 6.09375 7.48521 8.03438 7.48521C8.52285 7.4846 9.00587 7.3826 9.45288 7.18565C9.89989 6.98871 10.3011 6.70111 10.6313 6.34107C10.7033 6.26236 10.7986 6.20877 10.9033 6.18813C11.008 6.16749 11.1166 6.18089 11.2131 6.22636C11.3096 6.27183 11.3891 6.34699 11.4399 6.44086C11.4906 6.53472 11.51 6.64236 11.4952 6.74803C11.3088 8.06628 10.6528 9.2729 9.64766 10.146C8.64255 11.0191 7.35601 11.4999 6.02466 11.5H6.02461ZM4.00079 1.92959C2.50991 2.68069 1.50001 4.23228 1.50001 5.97537C1.50001 8.47029 3.52969 10.5 6.02461 10.5C7.76771 10.5 9.31929 9.49008 10.0704 7.9992C9.43906 8.31819 8.74172 8.48464 8.03438 8.4852C5.54222 8.4852 3.51467 6.45767 3.51467 3.96549C3.51528 3.25818 3.68178 2.56087 4.00079 1.92959Z" fill="white"/>
</g>
</svg>
