<svg width="39" height="31" viewBox="0 0 39 31" fill="none" xmlns="http://www.w3.org/2000/svg">
<path d="M39 3.66364C37.6071 4.22727 35.9357 4.79091 34.5429 4.79091C36.2143 3.94545 37.3286 2.25455 38.1643 0.563636C36.4929 1.40909 34.8214 1.97273 33.15 2.53636C31.7571 1.12727 29.5286 0 27.3 0C22.8429 0 19.2214 3.38182 19.2214 7.89091C19.2214 8.45455 19.2214 9.01818 19.5 9.58182C12.5357 9.3 6.68571 6.2 2.78571 1.40909C1.95 2.53636 1.67143 3.94545 1.67143 5.35455C1.67143 8.17273 3.06429 10.4273 5.29286 11.8364C3.9 11.8364 2.78571 11.5545 1.67143 10.9909C1.67143 14.6545 4.45714 18.0364 8.07857 18.6C7.24286 18.8818 6.68571 18.8818 5.85 18.8818C5.29286 18.8818 4.73571 18.8818 4.45714 18.8818C5.57143 21.9818 8.35714 24.2364 11.9786 24.2364C9.19286 26.2091 5.85 27.6182 1.95 27.6182C1.39286 27.6182 0.557143 27.6182 0 27.6182C3.62143 29.8727 7.8 31 12.2571 31C27.0214 31 35.1 19.1636 35.1 8.73636C35.1 8.45455 35.1 8.17273 35.1 7.60909C36.4929 6.48182 37.8857 5.35455 39 3.66364Z" fill="#FF1A88"/>
</svg>
