<svg width="40" height="31" viewBox="0 0 40 31" fill="none" xmlns="http://www.w3.org/2000/svg">
<path d="M33.8838 2.59624C31.2945 1.38337 28.526 0.501912 25.6315 0C25.276 0.643434 24.8607 1.50887 24.5744 2.19732C21.4975 1.73405 18.4489 1.73405 15.4286 2.19732C15.1423 1.50887 14.7176 0.643434 14.3589 0C11.4613 0.501912 8.68959 1.38661 6.10032 2.60267C0.877738 10.5039 -0.538019 18.2088 0.169861 25.8044C3.63375 28.3942 6.99068 29.9674 10.291 30.9968C11.1058 29.874 11.8326 28.6805 12.4586 27.4226C11.2663 26.969 10.1242 26.4092 9.04512 25.7594C9.3314 25.547 9.61143 25.325 9.88197 25.0966C16.4637 28.1786 23.6148 28.1786 30.1179 25.0966C30.3916 25.325 30.6716 25.547 30.9547 25.7594C29.8725 26.4124 28.7273 26.9722 27.5349 27.4258C28.161 28.6805 28.8846 29.8773 29.7026 31C33.0061 29.9705 36.3661 28.3974 39.83 25.8044C40.6606 16.9992 38.4111 9.36501 33.8838 2.59624ZM13.3553 21.1332C11.3795 21.1332 9.75925 19.2866 9.75925 17.0378C9.75925 14.789 11.3449 12.9392 13.3553 12.9392C15.3657 12.9392 16.9859 14.7858 16.9513 17.0378C16.9545 19.2866 15.3657 21.1332 13.3553 21.1332ZM26.6446 21.1332C24.6688 21.1332 23.0485 19.2866 23.0485 17.0378C23.0485 14.789 24.6342 12.9392 26.6446 12.9392C28.6549 12.9392 30.2752 14.7858 30.2406 17.0378C30.2406 19.2866 28.6549 21.1332 26.6446 21.1332Z" fill="#FF1A88"/>
</svg>
